<svg width="160" height="54" viewBox="0 0 160 54" fill="none" xmlns="http://www.w3.org/2000/svg">
<path d="M74.2134 12.5C74.647 12.5 75.0103 12.1426 75.0103 11.709C75.0103 11.2695 74.647 10.9121 74.2134 10.9121C73.7739 10.9121 73.4165 11.2695 73.4165 11.709C73.4165 12.1426 73.7739 12.5 74.2134 12.5Z" fill="#A4ACB6"/>
<path d="M73.5747 20H74.8403V13.6367H73.5747V20Z" fill="#A4ACB6"/>
<path d="M50.5298 20.2051C52.4165 20.2051 53.7935 19.127 54.0396 17.5039V17.4688H52.7388L52.7271 17.4922C52.4868 18.4473 51.6489 19.0449 50.5298 19.0449C49.0063 19.0449 48.0571 17.7852 48.0571 15.7812V15.7695C48.0571 13.7598 49.0063 12.5 50.5239 12.5C51.6372 12.5 52.4868 13.1738 52.7329 14.2109V14.2285H54.0337L54.0396 14.1992C53.8169 12.5176 52.3872 11.3398 50.5239 11.3398C48.1743 11.3398 46.7153 13.0391 46.7153 15.7695V15.7812C46.7153 18.5059 48.1802 20.2051 50.5298 20.2051Z" fill="#A4ACB6"/>
<path fill-rule="evenodd" clip-rule="evenodd" d="M58.3169 20.123C60.1802 20.123 61.3228 18.875 61.3228 16.8242V16.8125C61.3228 14.7617 60.1743 13.5137 58.3169 13.5137C56.4536 13.5137 55.3052 14.7676 55.3052 16.8125V16.8242C55.3052 18.875 56.4478 20.123 58.3169 20.123ZM58.3169 19.0625C57.2212 19.0625 56.606 18.2363 56.606 16.8242V16.8125C56.606 15.4004 57.2212 14.5742 58.3169 14.5742C59.4067 14.5742 60.0278 15.4004 60.0278 16.8125V16.8242C60.0278 18.2305 59.4067 19.0625 58.3169 19.0625Z" fill="#A4ACB6"/>
<path d="M64.1118 20H62.8403V13.6367H64.1118V14.6152H64.2056C64.4868 13.918 65.1079 13.5137 65.9399 13.5137C66.8071 13.5137 67.4224 13.9648 67.7036 14.6504H67.8032C68.1255 13.9648 68.8579 13.5137 69.7427 13.5137C71.0259 13.5137 71.7759 14.2871 71.7759 15.6113V20H70.5103V15.916C70.5103 15.0371 70.1118 14.6035 69.2798 14.6035C68.4712 14.6035 67.938 15.207 67.938 15.9746V20H66.6724V15.7871C66.6724 15.0605 66.1978 14.6035 65.4478 14.6035C64.6802 14.6035 64.1118 15.2598 64.1118 16.0918V20Z" fill="#A4ACB6"/>
<path d="M77.9634 20H76.6919V13.6367H77.9634V14.6035H78.0571C78.3677 13.9238 78.9771 13.5137 79.9028 13.5137C81.3267 13.5137 82.1118 14.3633 82.1118 15.8809V20H80.8462V16.1797C80.8462 15.125 80.4067 14.6035 79.4751 14.6035C78.5435 14.6035 77.9634 15.2422 77.9634 16.2676V20Z" fill="#A4ACB6"/>
<path fill-rule="evenodd" clip-rule="evenodd" d="M86.5767 22.2441C88.3813 22.2441 89.5239 21.3184 89.5239 19.8711V13.6367H88.2583V14.6797H88.1821C87.813 13.9648 87.1216 13.5254 86.231 13.5254C84.5786 13.5254 83.5649 14.8086 83.5649 16.625V16.6367C83.5649 18.4297 84.5728 19.6895 86.2075 19.6895C87.0806 19.6895 87.7837 19.3027 88.1704 18.6113H88.2642V19.8652C88.2642 20.7324 87.6431 21.2246 86.5942 21.2246C85.7329 21.2246 85.2173 20.9141 85.1118 20.4746L85.106 20.4629H83.8228L83.811 20.4746C83.9634 21.5352 84.9595 22.2441 86.5767 22.2441ZM86.5591 18.6406C85.4751 18.6406 84.8657 17.8145 84.8657 16.6309V16.6191C84.8657 15.4355 85.4751 14.6035 86.5591 14.6035C87.6313 14.6035 88.2876 15.4355 88.2876 16.6191V16.6309C88.2876 17.8203 87.6372 18.6406 86.5591 18.6406Z" fill="#A4ACB6"/>
<path d="M99.5845 18.1426C99.5845 19.3203 98.4595 20.123 96.9478 20.123C95.4126 20.123 94.4399 19.4023 94.3169 18.3359V18.3301H95.5884L95.5942 18.3359C95.7524 18.8164 96.2153 19.1387 96.9712 19.1387C97.7563 19.1387 98.3013 18.7812 98.3013 18.2598V18.248C98.3013 17.8496 98.0024 17.5801 97.2642 17.4102L96.2505 17.1758C95.0493 16.9004 94.4927 16.3555 94.4927 15.4238V15.418C94.4927 14.3105 95.5239 13.5137 96.9653 13.5137C98.4185 13.5137 99.3501 14.2402 99.4614 15.2773V15.2832H98.2485V15.2715C98.1255 14.8262 97.6743 14.4922 96.9595 14.4922C96.2622 14.4922 95.7583 14.8379 95.7583 15.3477V15.3594C95.7583 15.7578 96.0513 16.0039 96.7661 16.1738L97.7739 16.4023C98.9985 16.6895 99.5845 17.2109 99.5845 18.1309V18.1426Z" fill="#A4ACB6"/>
<path fill-rule="evenodd" clip-rule="evenodd" d="M103.797 20.123C105.661 20.123 106.803 18.875 106.803 16.8242V16.8125C106.803 14.7617 105.655 13.5137 103.797 13.5137C101.934 13.5137 100.786 14.7676 100.786 16.8125V16.8242C100.786 18.875 101.928 20.123 103.797 20.123ZM103.797 19.0625C102.702 19.0625 102.086 18.2363 102.086 16.8242V16.8125C102.086 15.4004 102.702 14.5742 103.797 14.5742C104.887 14.5742 105.508 15.4004 105.508 16.8125V16.8242C105.508 18.2305 104.887 19.0625 103.797 19.0625Z" fill="#A4ACB6"/>
<path fill-rule="evenodd" clip-rule="evenodd" d="M114.022 16.8242C114.022 18.875 112.879 20.123 111.016 20.123C109.147 20.123 108.004 18.875 108.004 16.8242V16.8125C108.004 14.7676 109.153 13.5137 111.016 13.5137C112.874 13.5137 114.022 14.7617 114.022 16.8125V16.8242ZM109.305 16.8242C109.305 18.2363 109.92 19.0625 111.016 19.0625C112.106 19.0625 112.727 18.2305 112.727 16.8242V16.8125C112.727 15.4004 112.106 14.5742 111.016 14.5742C109.92 14.5742 109.305 15.4004 109.305 16.8125V16.8242Z" fill="#A4ACB6"/>
<path d="M115.54 20H116.811V16.2676C116.811 15.2422 117.391 14.6035 118.323 14.6035C119.254 14.6035 119.694 15.125 119.694 16.1797V20H120.959V15.8809C120.959 14.3633 120.174 13.5137 118.75 13.5137C117.825 13.5137 117.215 13.9238 116.905 14.6035H116.811V13.6367H115.54V20Z" fill="#A4ACB6"/>
<path d="M129.104 19.9766C128.899 20.0117 128.665 20.041 128.418 20.041C127.018 20.041 126.444 19.5488 126.444 18.3242V14.6387H125.448V13.6367H126.444V12.0312H127.739V13.6367H129.104V14.6387H127.739V18.0195C127.739 18.7051 127.997 18.9863 128.624 18.9863C128.817 18.9863 128.928 18.9805 129.104 18.9629V19.9766Z" fill="#A4ACB6"/>
<path fill-rule="evenodd" clip-rule="evenodd" d="M133.211 20.123C135.075 20.123 136.217 18.875 136.217 16.8242V16.8125C136.217 14.7617 135.069 13.5137 133.211 13.5137C131.348 13.5137 130.2 14.7676 130.2 16.8125V16.8242C130.2 18.875 131.342 20.123 133.211 20.123ZM133.211 19.0625C132.116 19.0625 131.5 18.2363 131.5 16.8242V16.8125C131.5 15.4004 132.116 14.5742 133.211 14.5742C134.301 14.5742 134.922 15.4004 134.922 16.8125V16.8242C134.922 18.2305 134.301 19.0625 133.211 19.0625Z" fill="#A4ACB6"/>
<path d="M30.9561 11.7725C31.0855 13.4792 30.551 15.1696 29.4659 16.4848C28.9463 17.1373 28.2869 17.6622 27.5372 18.0201C26.7876 18.378 25.9673 18.5594 25.1381 18.5508C25.0852 17.7301 25.193 16.9069 25.4554 16.1282C25.7178 15.3496 26.1296 14.6308 26.6673 14.0129C27.767 12.7482 29.2983 11.9483 30.9561 11.7725Z" fill="#A4ACB6"/>
<path d="M33.6469 24.3308C33.096 25.3109 32.7995 26.4157 32.7851 27.5425C32.7865 28.81 33.1573 30.049 33.8514 31.1051C34.5456 32.1612 35.5322 32.9876 36.6884 33.4814C36.2338 34.9723 35.5486 36.3814 34.6581 37.6562C33.4623 39.4624 32.2084 41.227 30.2184 41.2596C29.2719 41.2816 28.633 41.0069 27.9673 40.7205C27.2729 40.4218 26.5493 40.1106 25.4169 40.1106C24.216 40.1106 23.46 40.4319 22.7309 40.7417C22.1008 41.0094 21.4907 41.2687 20.631 41.3047C18.7358 41.3755 17.2873 39.3769 16.048 37.5877C13.5709 33.9338 11.6421 27.2904 14.228 22.77C14.8249 21.6869 15.6896 20.7784 16.7377 20.133C17.7858 19.4876 18.9816 19.1274 20.2086 19.0874C21.2835 19.065 22.3149 19.4833 23.2192 19.8501C23.9108 20.1305 24.528 20.3809 25.0334 20.3809C25.4777 20.3809 26.0777 20.1404 26.7769 19.8602C27.8784 19.4188 29.2262 18.8788 30.5996 19.0243C31.6521 19.0576 32.6825 19.3382 33.6088 19.8438C34.5352 20.3495 35.332 21.0662 35.936 21.9372C34.9853 22.5274 34.1978 23.3508 33.6469 24.3308Z" fill="#A4ACB6"/>
<path fill-rule="evenodd" clip-rule="evenodd" d="M56.5617 36.6386H50.2328L48.7129 41.1698H46.0322L52.0269 24.4055H54.812L60.8067 41.1698H58.0803L56.5617 36.6386ZM50.8883 34.5477H55.905L53.4319 27.1939H53.3627L50.8883 34.5477Z" fill="#A4ACB6"/>
<path fill-rule="evenodd" clip-rule="evenodd" d="M68.7012 41.2977C71.7397 41.2977 73.7532 38.8574 73.7532 35.0592C73.7532 31.2715 71.7279 28.8194 68.6555 28.8194C67.8796 28.7941 67.1114 28.9817 66.4327 29.3622C65.7539 29.7427 65.19 30.3019 64.801 30.9802H64.7553V28.9473H62.3501V45.2132H64.8349V39.1593H64.8924C65.2643 39.8409 65.8189 40.4029 66.4925 40.7811C67.1661 41.1593 67.9316 41.3383 68.7012 41.2977ZM68.0001 30.9578C69.9325 30.9578 71.1991 32.5846 71.1991 35.0592C71.1991 37.5562 69.9326 39.1712 68.0001 39.1712C66.1015 39.1712 64.8245 37.5219 64.8245 35.0592C64.8245 32.6189 66.1015 30.9578 68.0001 30.9578Z" fill="#A4ACB6"/>
<path fill-rule="evenodd" clip-rule="evenodd" d="M87.0769 35.0592C87.0769 38.8574 85.0634 41.2977 82.025 41.2977C81.2553 41.3383 80.4898 41.1593 79.8162 40.7811C79.1426 40.4029 78.5881 39.8409 78.2161 39.1593H78.1586V45.2132H75.6738V28.9473H78.079V30.9802H78.1247C78.5137 30.3018 79.0776 29.7427 79.7563 29.3622C80.4351 28.9817 81.2033 28.7941 81.9792 28.8194C85.0517 28.8194 87.0769 31.2715 87.0769 35.0592ZM84.5229 35.0592C84.5229 32.5846 83.2563 30.9578 81.3238 30.9578C79.4252 30.9578 78.1482 32.6189 78.1482 35.0592C78.1482 37.5219 79.4252 39.1712 81.3238 39.1712C83.2563 39.1712 84.5229 37.5562 84.5229 35.0592Z" fill="#A4ACB6"/>
<path d="M99.8519 39.2528C97.6661 39.2528 96.0666 38.1613 95.8825 36.4988L93.3389 36.4987C93.4995 39.531 95.9856 41.4492 99.6678 41.4492C103.603 41.4492 106.078 39.4848 106.078 36.3484C106.078 33.8963 104.662 32.5147 101.256 31.7012L99.4262 31.2477C97.2861 30.7138 96.4113 30.0164 96.4113 28.8312C96.4113 27.3441 97.781 26.3224 99.7827 26.3224C101.784 26.3224 103.154 27.3322 103.304 29.0052H105.813C105.732 26.1127 103.326 24.126 99.818 24.126C96.2729 24.126 93.7763 26.1127 93.7763 29.0052C93.7763 31.3414 95.1918 32.781 98.2407 33.5246L100.393 34.048C102.544 34.5819 103.453 35.361 103.453 36.6623C103.453 38.1613 101.946 39.2528 99.8519 39.2528Z" fill="#A4ACB6"/>
<path d="M111.441 26.0548V28.9473H113.743V30.9341H111.441V37.6722C111.441 38.719 111.902 39.2068 112.914 39.2068C113.187 39.202 113.46 39.1826 113.731 39.1487V41.1236C113.276 41.2094 112.814 41.2483 112.351 41.2396C109.9 41.2396 108.944 40.3102 108.944 37.9398V30.9341H107.184V28.9473H108.944V26.0548H111.441Z" fill="#A4ACB6"/>
<path fill-rule="evenodd" clip-rule="evenodd" d="M120.817 28.797C117.319 28.797 115.076 31.2136 115.076 35.0592C115.076 38.9154 117.297 41.3214 120.817 41.3214C124.339 41.3214 126.56 38.9154 126.56 35.0592C126.56 31.2135 124.327 28.797 120.817 28.797ZM120.817 30.8642C122.83 30.8642 124.028 32.4212 124.028 35.0592C124.028 37.7078 122.83 39.2529 120.817 39.2529C118.804 39.2529 117.607 37.7078 117.607 35.0592C117.607 32.433 118.804 30.8642 120.817 30.8642Z" fill="#A4ACB6"/>
<path d="M128.608 28.9473H130.978V31.0276H131.036C131.196 30.3779 131.573 29.8037 132.103 29.4016C132.634 28.9994 133.285 28.7938 133.948 28.8194C134.234 28.8184 134.52 28.8498 134.799 28.913V31.2597C134.437 31.1481 134.06 31.0969 133.683 31.1081C133.322 31.0933 132.962 31.1575 132.628 31.2964C132.294 31.4353 131.993 31.6456 131.747 31.9127C131.501 32.1799 131.315 32.4976 131.203 32.8441C131.09 33.1906 131.052 33.5577 131.093 33.9201V41.1698H128.608L128.608 28.9473Z" fill="#A4ACB6"/>
<path fill-rule="evenodd" clip-rule="evenodd" d="M141.043 41.3214C143.781 41.3214 145.921 39.7987 146.255 37.5799L143.896 37.5799C143.675 38.1322 143.284 38.5978 142.78 38.9075C142.277 39.2173 141.687 39.3546 141.1 39.299C140.653 39.3156 140.208 39.2361 139.794 39.0655C139.38 38.895 139.006 38.6375 138.698 38.3101C138.39 37.9826 138.155 37.5928 138.007 37.1664C137.86 36.74 137.804 36.2868 137.844 35.837V35.6854H146.394V34.8259C146.394 31.1199 144.288 28.797 140.938 28.797C137.533 28.797 135.335 31.2834 135.335 35.1172C135.335 38.9391 137.521 41.3214 141.043 41.3214ZM143.908 33.932H137.856C137.854 33.5235 137.934 33.1187 138.088 32.7412C138.243 32.3637 138.47 32.0208 138.757 31.7324C139.043 31.444 139.384 31.2158 139.758 31.0609C140.133 30.906 140.534 30.8275 140.938 30.8299C141.339 30.8212 141.738 30.8963 142.109 31.0505C142.48 31.2047 142.815 31.4346 143.094 31.7259C143.373 32.0172 143.589 32.3635 143.729 32.7432C143.869 33.1228 143.93 33.5275 143.908 33.932Z" fill="#A4ACB6"/>
<path fill-rule="evenodd" clip-rule="evenodd" d="M0 9C0 4.02944 4.02944 0 9 0H151C155.971 0 160 4.02944 160 9V45C160 49.9706 155.971 54 151 54H9C4.02943 54 0 49.9706 0 45V9ZM9 1H151C155.418 1 159 4.58172 159 9V45C159 49.4183 155.418 53 151 53H9C4.58172 53 1 49.4183 1 45V9C1 4.58172 4.58172 1 9 1Z" fill="#A4ACB6"/>
</svg>
