<svg width="73" height="102" viewBox="0 0 73 102" fill="none" xmlns="http://www.w3.org/2000/svg">
<g clip-path="url(#clip0)">
<path d="M59.609 25.7336C61.02 25.7336 62.3668 25.4459 63.6495 25.0303C68.7802 23.3041 72.5 18.477 72.5 12.7869C72.468 5.69016 66.6638 0 59.5449 0H29.2735C15.4846 0 4.32518 11.2525 4.35725 25.0303C4.38931 38.7762 15.6128 49.9008 29.4017 49.8688C29.5941 49.8688 29.7545 49.8688 29.9469 49.8688C29.6583 49.709 29.3697 49.5172 29.0811 49.3254C25.6499 46.9918 23.4052 43.0918 23.3731 38.6803C23.341 31.5836 29.1452 25.7336 36.2641 25.7336H59.609Z" fill="#FF165F"/>
<path d="M13.391 52.2664C11.9801 52.2664 10.6332 52.5541 9.35055 52.9697C4.21979 54.6959 0.5 59.523 0.5 65.2131C0.532067 72.3099 6.33623 78 13.4551 78H43.7266C57.5155 78 68.6748 66.7476 68.6428 52.9697C68.6107 39.2238 57.3872 28.0992 43.5983 28.1312C43.4059 28.1312 43.2456 28.1312 43.0532 28.1312C43.3418 28.291 43.6304 28.4828 43.919 28.6746C47.3181 30.9763 49.5949 34.8763 49.5949 39.2877C49.6269 46.3525 43.8228 52.2344 36.7039 52.2344H13.391V52.2664Z" fill="#FF165F"/>
</g>
<path d="M7.34514 86C2.65047 86 0.500244 87.945 0.500244 90.9541C0.500244 93.4128 1.86205 95.1009 5.15907 95.6881C5.80414 95.7982 6.98676 96.0183 7.56016 96.1284C8.92197 96.3486 9.13699 96.6422 9.13699 97.0826C9.13699 97.5963 8.70695 98 7.13011 98C5.30242 98 2.39961 97.3028 0.607756 96.3853V100.716C2.14875 101.45 4.54984 102 6.84342 102C11.3947 102 13.6883 99.7248 13.6883 96.6789C13.6883 94.1468 12.5057 92.7156 9.13699 92.0917C8.49192 91.9816 7.66767 91.8349 7.13011 91.7248C5.4816 91.4312 5.15907 91.211 5.15907 90.7339C5.15907 90.2202 5.58912 89.9266 7.23762 89.9266C8.99364 89.9266 11.3231 90.4771 12.8999 91.2477V87.0642C11.6098 86.4404 9.42369 86 7.34514 86Z" fill="#0C1F3F"/>
<path d="M28.9432 86.3721H23.7036L19.3551 93.8504V86.3721H14.7571V101.628H19.3551V94.1495L23.7749 101.628H29.0144L24.0957 93.813L28.9432 86.3721Z" fill="#0C1F3F"/>
<path d="M34.004 86.3721H29.3704V101.628H34.004V86.3721Z" fill="#0C1F3F"/>
<path d="M35.7874 101.628V86.3721H40.4334V97.7765H46.1239V101.628H35.7874Z" fill="#0C1F3F"/>
<path d="M47.1926 101.628V86.3721H51.8387V97.7765H57.5292V101.628H47.1926Z" fill="#0C1F3F"/>
<path d="M67.3383 101.628H72.4998L68.9625 96.2193C70.8755 95.2495 71.9223 93.4591 71.9223 91.333C71.9223 88.3117 69.4318 86.3721 66.472 86.3721H58.2424V101.628H62.9347V97.301H64.5951L67.3383 101.628ZM62.9347 90.1021H65.2448C66.6525 90.1021 67.2661 90.7735 67.2661 91.8179C67.2661 92.9742 66.6164 93.571 65.2448 93.571H62.9347V90.1021Z" fill="#0C1F3F"/>
<defs>
<clipPath id="clip0">
<rect width="72" height="78" fill="white" transform="translate(0.5)"/>
</clipPath>
</defs>
</svg>
