<svg width="24" height="26" viewBox="0 0 24 26" fill="none" xmlns="http://www.w3.org/2000/svg">
<g clip-path="url(#clip0)">
<path d="M19.7029 8.57787C20.1732 8.57787 20.6222 8.48197 21.0497 8.34344C22.76 7.76803 23.9999 6.15902 23.9999 4.26229C23.9892 1.89672 22.0545 0 19.6815 0H9.59107C4.99477 0 1.27498 3.75082 1.28567 8.34344C1.29636 12.9254 5.03753 16.6336 9.63383 16.6229C9.69796 16.6229 9.75141 16.6229 9.81554 16.6229C9.71934 16.5697 9.62314 16.5057 9.52694 16.4418C8.38321 15.6639 7.63497 14.3639 7.62428 12.8934C7.61359 10.5279 9.54831 8.57787 11.9213 8.57787H19.7029Z" fill="#FF165F"/>
<path d="M4.297 17.4222C3.82669 17.4222 3.37774 17.5181 2.95018 17.6566C1.23993 18.232 0 19.841 0 21.7378C0.0106891 24.1033 1.94541 26 4.31838 26H14.4089C19.0052 26 22.725 22.2492 22.7143 17.6566C22.7036 13.0746 18.9624 9.36644 14.3661 9.3771C14.302 9.3771 14.2485 9.3771 14.1844 9.3771C14.2806 9.43038 14.3768 9.49431 14.473 9.55825C15.606 10.3255 16.365 11.6255 16.365 13.096C16.3756 15.4509 14.4409 17.4115 12.068 17.4115H4.297V17.4222Z" fill="#FF165F"/>
</g>
<defs>
<clipPath id="clip0">
<rect width="24" height="26" fill="white"/>
</clipPath>
</defs>
</svg>
